<?xml version="1.0" encoding="utf-8"?>
<!-- Generator: Adobe Illustrator 17.0.0, SVG Export Plug-In . SVG Version: 6.00 Build 0)  -->
<!DOCTYPE svg PUBLIC "-//W3C//DTD SVG 1.1 Tiny//EN" "http://www.w3.org/Graphics/SVG/1.1/DTD/svg11-tiny.dtd">
<svg version="1.1" baseProfile="tiny" id="Layer_1" xmlns="http://www.w3.org/2000/svg" xmlns:xlink="http://www.w3.org/1999/xlink"
	 x="0px" y="0px" width="50px" height="50px" viewBox="0 0 50 50" xml:space="preserve">
<g>
	<path fill="#D82F2E" d="M12.058,23.933H4.453v-1.67h7.604V23.933z M12.058,28.074l-6.396,6.396l-1.208-1.195l6.41-6.396
		L12.058,28.074z M14.583,18.094l-1.195,1.195l-6.396-6.396l1.195-1.195L14.583,18.094z M26.71,12.499v3.585
		c2.381,0.453,4.146,1.512,5.296,3.178c1.213,1.756,1.819,4.318,1.819,7.686c0,2.128,0.48,3.82,1.439,5.079
		c0.833,1.096,2.228,2.068,4.183,2.92v1.643H27.986c0,0.797-0.394,1.517-1.182,2.159c-0.787,0.643-1.652,0.964-2.593,0.964
		c-0.887,0-1.729-0.321-2.526-0.964c-0.824-0.661-1.236-1.381-1.236-2.159H8.989v-1.643c2.209-1.06,3.667-2.056,4.373-2.987
		c0.833-1.096,1.25-2.767,1.25-5.012c0-6.382,2.372-10.003,7.115-10.863v-3.585H26.71z M37.396,35.19
		c-1.376-0.543-2.507-1.489-3.395-2.838c-0.996-1.53-1.493-3.332-1.493-5.405c0-3.322-0.734-5.843-2.2-7.563
		c-1.422-1.647-3.449-2.471-6.083-2.471c-5.541,0-8.311,3.345-8.311,10.035c0,2.327-0.421,4.146-1.263,5.459
		c-0.815,1.276-2.114,2.205-3.897,2.784h10.592c-0.019,0.959,0.226,1.725,0.733,2.295c0.507,0.57,1.227,0.855,2.159,0.855
		c0.933,0,1.652-0.29,2.159-0.869c0.471-0.552,0.697-1.313,0.679-2.281H37.396z M41.838,12.893l-6.396,6.396l-1.195-1.195
		l6.396-6.396L41.838,12.893z M44.377,23.933h-7.591v-1.67h7.591V23.933z M44.377,33.275l-1.195,1.195l-6.396-6.396l1.194-1.194
		L44.377,33.275z"/>
</g>
</svg>
