<?xml version="1.0" encoding="utf-8"?>
<!-- Generator: Adobe Illustrator 17.0.0, SVG Export Plug-In . SVG Version: 6.00 Build 0)  -->
<!DOCTYPE svg PUBLIC "-//W3C//DTD SVG 1.1 Tiny//EN" "http://www.w3.org/Graphics/SVG/1.1/DTD/svg11-tiny.dtd">
<svg version="1.1" baseProfile="tiny" id="Layer_1" xmlns="http://www.w3.org/2000/svg" xmlns:xlink="http://www.w3.org/1999/xlink"
	 x="0px" y="0px" width="50px" height="50px" viewBox="0 0 50 50" xml:space="preserve">
<g>
	<path fill="#FFFFFF" d="M13.76,15.58l-5.415,0.383v-0.812L13.76,15.58z M13.602,14.113l-4.896-2.392l0.406-0.699L13.602,14.113z
		 M12.677,27.221l-2.617-2.324v-6.746h2.617v0.338h-0.812v6.408h-1.061l1.873,1.624V27.221z M14.708,12.624l-3.023-3.723l0.7-0.406
		L14.708,12.624z M36.57,37.374h-0.654v0.993h-1.084v3.564h-4.061v-2.347c-0.813-0.015-1.279-0.421-1.398-1.218H19.49
		c-0.105,0.797-0.564,1.203-1.376,1.218v2.347h-4.061v-3.564H12.97v-0.993h-0.654v-1.398h0.654l-0.022-18.095
		c0-0.361,0.18-0.707,0.542-1.038c0.316-0.316,0.616-0.474,0.902-0.474h20.079c0.301,0,0.617,0.162,0.947,0.485
		c0.332,0.324,0.498,0.666,0.498,1.027v18.095h0.654V37.374z M36.32,37.193v-0.925H12.564v0.925h4.49
		c0.286-0.301,0.632-0.451,1.038-0.451c0.406,0,0.752,0.15,1.038,0.451h10.626c0.271-0.301,0.617-0.451,1.037-0.451
		c0.406,0,0.752,0.15,1.039,0.451H36.32z M17.234,35.502V32.93h-3.61v2.572H17.234z M23.709,24.897v-6.746h-9.972v6.746H23.709z
		 M16.941,16.053h-2.324l0.474-2.369h1.534L16.941,16.053z M17.054,8.202l-0.429,4.377l-0.383-4.377H17.054z M19.242,38.209
		c0-0.767-0.383-1.15-1.15-1.15c-0.752,0-1.128,0.384-1.128,1.15c0,0.752,0.376,1.128,1.128,1.128
		C18.859,39.337,19.242,38.961,19.242,38.209z M30.793,15.151h-1.939v-1.105h-8.799v1.105h-1.963v-3.271h1.963v1.015h8.799v-1.015
		h1.939V15.151z M20.055,16.008l-1.963-0.542h1.963V16.008z M30.771,33.787V32.93H18.114v0.857H30.771z M30.771,35.502v-0.857
		H18.114v0.857H30.771z M28.471,15.151h-8.055v-0.79h8.055V15.151z M28.471,16.008h-8.055v-0.542h8.055V16.008z M35.148,24.897
		v-6.746h-9.973v6.746H35.148z M30.793,15.467l-1.939,0.542v-0.542H30.793z M31.922,38.209c0-0.767-0.377-1.15-1.129-1.15
		c-0.766,0-1.15,0.384-1.15,1.15c0,0.752,0.385,1.128,1.15,1.128C31.545,39.337,31.922,38.961,31.922,38.209z M35.262,35.502V32.93
		H31.65v2.572H35.262z M32.666,8.202l-0.383,4.377l-0.43-4.377H32.666z M34.268,16.053h-2.322l0.314-2.369h1.535L34.268,16.053z
		 M37.225,8.901l-3.047,3.723l2.346-4.129L37.225,8.901z M40.563,15.963l-5.438-0.383l5.438-0.429V15.963z M40.18,11.721
		l-4.873,2.392l4.467-3.091L40.18,11.721z M38.826,24.897l-2.617,2.324v-0.7l1.895-1.624h-1.061V18.49h-0.834v-0.338h2.617V24.897z"
		/>
</g>
</svg>
