<?xml version="1.0" encoding="utf-8"?>
<!-- Generator: Adobe Illustrator 17.0.0, SVG Export Plug-In . SVG Version: 6.00 Build 0)  -->
<!DOCTYPE svg PUBLIC "-//W3C//DTD SVG 1.1//EN" "http://www.w3.org/Graphics/SVG/1.1/DTD/svg11.dtd">
<svg version="1.1" id="Layer_1" xmlns="http://www.w3.org/2000/svg" xmlns:xlink="http://www.w3.org/1999/xlink" x="0px" y="0px"
	 width="50px" height="50px" viewBox="0 0 50 50" enable-background="new 0 0 50 50" xml:space="preserve">
<g>
	<path d="M17.514,32.171c-1.031-1.933-2.546-2.9-4.543-2.9c-1.514,0-2.807,0.568-3.879,1.704c-1.071,1.136-1.607,2.501-1.607,4.096
		v2.078H5.068V24.39c0-1.321,0.846-1.982,2.538-1.982h0.943l2.441-5.921c0.338-0.806,0.943-1.208,1.813-1.208h4.713V32.171z
		 M17.514,35.337c0,1.321-0.443,2.449-1.329,3.383c-0.886,0.934-1.958,1.402-3.214,1.402s-2.328-0.467-3.214-1.402
		c-0.886-0.934-1.329-2.062-1.329-3.383s0.443-2.449,1.329-3.383s1.958-1.402,3.214-1.402s2.328,0.467,3.214,1.402
		C17.071,32.888,17.514,34.016,17.514,35.337z M16.717,22.408V16.56h-4.954l-2.223,5.848H16.717z M45.524,37.15h-1.136v-2.078
		c0-1.595-0.54-2.96-1.619-4.096c-1.079-1.136-2.376-1.704-3.891-1.704c-1.514,0-2.807,0.568-3.879,1.704
		c-1.071,1.136-1.607,2.501-1.607,4.096l-0.024,2.078H18.36V10.614h27.164V37.15z M24.933,10.059h-3.287l0.653-3.021h2.127
		L24.933,10.059z M40.545,24.293v-6.936h-4.882v-4.882h-6.936v4.882h-4.906v6.936h4.906v4.906h6.936v-4.906H40.545z M43.494,35.337
		c0,1.321-0.447,2.449-1.341,3.383c-0.894,0.934-1.962,1.402-3.202,1.402c-1.257,0-2.328-0.467-3.214-1.402
		c-0.886-0.934-1.329-2.062-1.329-3.383s0.443-2.449,1.329-3.383s1.958-1.402,3.214-1.402c1.241,0,2.308,0.467,3.202,1.402
		C43.047,32.888,43.494,34.016,43.494,35.337z"/>
</g>
</svg>
