<?xml version="1.0" encoding="utf-8"?>
<!-- Generator: Adobe Illustrator 17.0.0, SVG Export Plug-In . SVG Version: 6.00 Build 0)  -->
<!DOCTYPE svg PUBLIC "-//W3C//DTD SVG 1.1 Tiny//EN" "http://www.w3.org/Graphics/SVG/1.1/DTD/svg11-tiny.dtd">
<svg version="1.1" baseProfile="tiny" id="Layer_1" xmlns="http://www.w3.org/2000/svg" xmlns:xlink="http://www.w3.org/1999/xlink"
	 x="0px" y="0px" width="50px" height="50px" viewBox="0 0 50 50" xml:space="preserve">
<g>
	<path fill="#FFFFFF" d="M16.311,17.819l-5.956,0.422v-0.887L16.311,17.819z M13.713,25.126l-0.887,2.598l-1.816-1.183v-1.415
		H13.713z M16.543,15.833l-5.364-2.619l0.443-0.781L16.543,15.833z M38.824,34.82h-0.717v1.077h-1.184v3.907h-4.455v-2.576
		c-0.889-0.015-1.395-0.458-1.521-1.331H20.133c-0.126,0.873-0.626,1.316-1.5,1.331v2.576h-4.456v-3.907h-1.204V34.82h-0.718V33.3
		h0.718v-3.929c0-1.394,1.091-4.378,3.274-8.955c2.478-0.437,5.576-0.655,9.292-0.655c3.718,0,6.823,0.218,9.315,0.655
		c2.168,4.576,3.252,7.561,3.252,8.955V33.3h0.717V34.82z M38.551,34.609v-0.993H12.53v0.993h4.942
		c0.296-0.324,0.668-0.486,1.12-0.486c0.45,0,0.831,0.162,1.14,0.486h11.637c0.297-0.324,0.67-0.486,1.119-0.486
		c0.451,0,0.832,0.162,1.141,0.486H38.551z M17.663,32.751v-2.788h-3.95v2.788H17.663z M36.629,26.773
		c-0.17-0.592-0.486-1.534-0.951-2.83c-0.309-0.718-0.803-1.675-1.479-2.872c-1.971-0.282-4.857-0.422-8.659-0.422
		c-3.788,0-6.667,0.141-8.638,0.422c-0.324,0.577-0.816,1.535-1.478,2.872c-0.296,0.662-0.62,1.605-0.972,2.83
		c3.393-0.154,7.089-0.232,11.088-0.232C29.553,26.541,33.25,26.619,36.629,26.773z M19.626,15.263l-3.316-4.942l0.76-0.443
		L19.626,15.263z M34.137,19.065H16.944v-2.366h17.192V19.065z M19.838,35.707c0-0.83-0.416-1.246-1.246-1.246
		c-0.831,0-1.246,0.416-1.246,1.246c0,0.831,0.415,1.246,1.246,1.246C19.422,36.953,19.838,36.538,19.838,35.707z M22.731,18.643
		v-1.584h-5.364v1.584H22.731z M32.469,30.892v-0.929H18.634v0.929H32.469z M32.469,32.751v-0.908H18.634v0.908H32.469z
		 M22.837,9.413l-0.465,5.935L21.95,9.413H22.837z M29.236,9.413l-0.422,5.935L28.35,9.413H29.236z M33.734,18.643v-1.584h-5.363
		v1.584H33.734z M33.734,35.707c0-0.83-0.414-1.246-1.246-1.246c-0.83,0-1.246,0.416-1.246,1.246c0,0.831,0.416,1.246,1.246,1.246
		C33.32,36.953,33.734,36.538,33.734,35.707z M34.875,10.321l-3.314,4.942l2.555-5.386L34.875,10.321z M37.389,32.751v-2.788h-3.949
		v2.788H37.389z M40.008,13.214l-5.365,2.619l4.922-3.4L40.008,13.214z M40.832,18.241l-5.957-0.422l5.957-0.465V18.241z
		 M40.092,26.541l-1.816,1.183l-0.887-2.598h2.703V26.541z"/>
</g>
</svg>
